# xmcd CD database file
#
# Track frame offsets:
#	182
#	13660
#	26612
#	38477
#	47940
#	64402
#	82372
#	95635
#	105865
#	120412
#	134767
#	145527
#	156865
#	171057
#	183342
#	199945
#
# Disc length: 2824 seconds
#
# Revision: 2
# Processed by: cddbd v1.5.2PL0 Copyright (c) Steve Scherf et al.
# Submitted via: CDex 1.70beta2
#
DISCID=db0b0610
DTITLE=Little Tony - le mie piu' belle canzoni
DYEAR=1996
DGENRE=Pop
TTITLE0=cuore matto
TTITLE1=ridera'
TTITLE2=il ragazzo col ciuffo
TTITLE3=profumo di mare
TTITLE4=la fine di Agosto
TTITLE5=il mio amore per giulia
TTITLE6=lacrime
TTITLE7=quando vedrai la mia ragazza
TTITLE8=ti senti sola stasera
TTITLE9=un uomo piange solo per amore
TTITLE10=la donna di picche
TTITLE11=t'amo e t'amero'
TTITLE12=non aspetto nessuno
TTITLE13=bada bambina
TTITLE14=stasera mi pento
TTITLE15=la spada nel cuore
EXTD=YEAR: 1996
EXTT0=
EXTT1=
EXTT2=
EXTT3=
EXTT4=
EXTT5=
EXTT6=
EXTT7=
EXTT8=
EXTT9=
EXTT10=
EXTT11=
EXTT12=
EXTT13=
EXTT14=
EXTT15=
PLAYORDER=
